PathFileType	4	(X/Y/Z)	C:/Users/opensim2020/Desktop/walking_exp_matlab/subject06_cal10_run.trc																																																																																																																																																	
DataRate	CameraRate	NumFrames	NumMarkers	Units	OrigDataRate	OrigDataStartFrame	OrigNumFrames																																																																																																																																													
100	100	5	49	mm	100	183	118																																																																																																																																													
Frame#	Time	LKNE			RTIB			RFRM			RWRA			LTHI			RKNE			RELB			RFHD			LWRA			RUPA			STRN			RASI			CLAV			RSHO			LASI			RTHI			RBHD			LBHD			C7			RWRB			RFIN			RTOE			LSHO			RBAK			LTIB			RANK			LFIN			LANK			RHEE			T10			LHEE			LTOE			LFHD			LPSI			RPSI			LUPA			LELB			LFRM			LWRB			*39			*40			*41			*42			*43			*44			*45			*46			*47			*48		
		X1	Y1	Z1	X2	Y2	Z2	X3	Y3	Z3	X4	Y4	Z4	X5	Y5	Z5	X6	Y6	Z6	X7	Y7	Z7	X8	Y8	Z8	X9	Y9	Z9	X10	Y10	Z10	X11	Y11	Z11	X12	Y12	Z12	X13	Y13	Z13	X14	Y14	Z14	X15	Y15	Z15	X16	Y16	Z16	X17	Y17	Z17	X18	Y18	Z18	X19	Y19	Z19	X20	Y20	Z20	X21	Y21	Z21	X22	Y22	Z22	X23	Y23	Z23	X24	Y24	Z24	X25	Y25	Z25	X26	Y26	Z26	X27	Y27	Z27	X28	Y28	Z28	X29	Y29	Z29	X30	Y30	Z30	X31	Y31	Z31	X32	Y32	Z32	X33	Y33	Z33	X34	Y34	Z34	X35	Y35	Z35	X36	Y36	Z36	X37	Y37	Z37	X38	Y38	Z38	X39	Y39	Z39	X40	Y40	Z40	X41	Y41	Z41	X42	Y42	Z42	X43	Y43	Z43	X44	Y44	Z44	X45	Y45	Z45	X46	Y46	Z46	X47	Y47	Z47	X48	Y48	Z48	X49	Y49	Z49
																																																																																																																																																				
15	0.14	-1742.78577	499.54602	103.48278	-1359.42029	370.53607	343.20554	-1678.38574	1145.92334	505.92883	-1576.38196	1058.89966	451.58557	-1668.79236	649.56763	75.0201	-1321.91174	625.07739	359.24277	-1708.97754	1252.70203	503.43628	-1324.41553	1614.53076	320.02988	-1321.19702	1163.2644	101.51254	-1634.77051	1334.98706	467.84805	-1402.1156	1163.0531	244.91292	-1483.76794	959.07465	339.17972	-1393.34229	1345.09778	246.71542	-1469.37915	1407.60266	383.43954	-1486.40222	927.35321	127.28744	-1404.92993	715.74451	390.5	-1461.9353	1588.29431	304.38803	-1449.81323	1592.01172	175.5575	-1482.01672	1445.48096	218.98338	-1620.21338	1024.84033	488.50058	-1547.54663	993.61987	492.67688	-1273.23816	122.46247	280.00189	-1404.52722	1396.5155	84.09676	-1602.28577	1308.83093	266.27679	-1924.14172	314.99585	110.23753	-1409.77698	193.40854	289.95892	-1236.79883	1145.19397	131.22409	-2026.94653	183.97015	147.17076	-1455.64612	180.22952	245.63425	-1604.05603	1139.26624	208.40501	-2058.18506	218.15921	184.67107	-2011.08984	40.6568	204.3403	-1310.60071	1623.40063	188.56772	-1626.15784	1000.90936	142.23239	-1625.22778	1011.04614	308.30206	-1435.85938	1236.93323	-33.75248	-1463.92773	1147.80835	-82.99436	-1366.11597	1110.85632	-9.55865	-1295.99963	1100.73145	82.23574	NaN	NaN	NaN	NaN	NaN	NaN	-1407.69714	1679.37109	238.14468	NaN	NaN	NaN	NaN	NaN	NaN	NaN	NaN	NaN	NaN	NaN	NaN	NaN	NaN	NaN	NaN	NaN	NaN	NaN	NaN	NaN
16	0.15	-1713.16589	510.84763	102.84323	-1308.61475	368.58209	343.11365	-1645.07056	1155.45959	502.39191	-1541.99719	1070.33264	446.75717	-1638.79285	657.89209	74.7531	-1287.32727	627.53711	358.87082	-1677.30017	1261.17383	501.13696	-1290.27051	1620.88757	323.03888	-1288.13574	1179.49048	106.00996	-1602.00073	1343.56921	467.06998	-1364.48621	1172.12048	245.87877	-1446.33228	966.10309	338.34607	-1359.56628	1353.58936	248.38857	-1435.92493	1414.66821	384.46924	-1447.23645	934.80066	127.54839	-1370.59778	718.43707	390.11395	-1428.04724	1595.87878	307.19431	-1415.81067	1600.24951	178.35805	-1448.22009	1453.172	221.19327	-1584.43652	1035.39099	484.31406	-1510.74072	1004.84869	487.32108	-1202.5636	120.94476	276.1564	-1370.46362	1406.23779	87.2375	-1566.70825	1317.39929	265.53165	-1894.66565	326.87497	109.08336	-1342.91968	187.98947	287.69467	-1203.95703	1163.10938	138.70398	-2000.95642	194.67915	145.43076	-1387.45544	173.72212	243.18546	-1566.74109	1146.71741	207.00046	-2025.39099	233.22307	180.4541	-1992.13208	51.25215	201.71182	-1275.50793	1630.73547	191.62379	-1585.96606	1008.12567	140.75166	-1585.80933	1017.88959	307.20206	-1399.4032	1247.68945	-31.2343	-1426.67273	1157.83789	-80.88147	-1330.00647	1123.49915	-4.48643	-1261.17249	1116.97131	89.18901	NaN	NaN	NaN	NaN	NaN	NaN	-1372.89368	1686.9082	241.53824	NaN	NaN	NaN	NaN	NaN	NaN	NaN	NaN	NaN	NaN	NaN	NaN	NaN	NaN	NaN	NaN	NaN	NaN	NaN	NaN	NaN
17	0.16	-1676.55359	520.68762	101.81793	-1260.099	365.21466	343.09909	-1610.526	1163.25964	499.24332	-1505.44653	1080.06799	443.14664	-1601.54126	668.35974	73.15385	-1253.87561	627.46826	358.44016	-1644.65747	1267.78491	499.00958	-1256.3772	1626.75586	325.98111	-1255.25073	1194.01294	110.00043	-1568.62512	1350.56409	466.37869	-1329.15881	1177.78076	245.07147	-1409.99646	971.26276	338.19223	-1325.48669	1361.04065	249.93388	-1402.08398	1420.59167	385.68134	-1408.75085	941.78381	127.50229	-1336.61328	718.58484	389.39685	-1394.18335	1602.276	309.91159	-1381.90125	1607.39978	181.09996	-1414.61438	1459.45251	223.33965	-1547.49268	1044.28418	480.36264	-1473.1792	1014.81183	482.54242	-1135.10437	119.1726	272.7027	-1336.77625	1415.16724	90.14889	-1531.27625	1324.51025	265.23019	-1862.3512	336.75909	108.2558	-1278.92859	182.79556	286.0885	-1172.25293	1179.20251	144.83012	-1966.74963	209.12035	143.04535	-1321.93115	167.93994	241.28041	-1529.47278	1153.74451	206.37825	-1993.02551	246.49911	179.05078	-1972.41992	61.51461	198.72922	-1241.52588	1637.27441	194.43036	-1546.54199	1014.79224	139.85889	-1547.53723	1022.94189	306.82352	-1363.45288	1257.57068	-29.13728	-1389.96899	1166.75708	-79.33648	-1293.42334	1135.42627	-0.06664	-1227.30444	1131.02917	95.34927	NaN	NaN	NaN	NaN	NaN	NaN	-1338.68799	1693.44116	244.81642	NaN	NaN	NaN	NaN	NaN	NaN	NaN	NaN	NaN	NaN	NaN	NaN	NaN	NaN	NaN	NaN	NaN	NaN	NaN	NaN	NaN
18	0.17	-1641.77283	524.45386	101.13219	-1214.48462	360.79745	342.39996	-1574.84741	1169.19153	496.51273	-1468.52917	1088.39722	439.61749	-1564.88074	674.32751	71.62344	-1221.80859	624.48785	358.28754	-1611.13672	1272.53186	497.40408	-1222.57422	1632.3324	328.77307	-1222.68005	1205.97192	113.16932	-1534.71863	1355.73572	465.9519	-1291.95813	1184.53479	245.92351	-1373.01001	975.18243	338.04535	-1291.26038	1367.2948	251.24742	-1367.7959	1425.31421	387.27423	-1370.57336	947.93176	127.12789	-1303.26038	716.29352	389.22314	-1360.42346	1607.81689	312.59177	-1348.11487	1613.63843	183.79393	-1381.1095	1464.58582	225.37117	-1509.53308	1051.46399	476.86594	-1434.51135	1023.12213	478.09811	-1071.39343	117.24219	269.59735	-1303.43994	1422.85376	92.5145	-1495.95044	1329.73865	265.63492	-1827.39185	344.46872	107.3462	-1217.93506	177.97873	285.03497	-1140.69678	1192.97998	150.49452	-1937.04041	220.50406	143.27403	-1259.84778	163.21181	240.19014	-1492.27087	1160.16846	206.64171	-1963.01685	257.96689	180.14111	-1943.77466	70.82523	197.40724	-1207.70483	1643.52966	197.24399	-1508.18311	1020.74463	139.99181	-1510.44067	1026.48865	306.66867	-1328.26892	1266.03918	-27.33153	-1353.69836	1174.26147	-78.00933	-1258.37891	1145.15234	3.74409	-1194.00916	1143.12634	100.77129	NaN	NaN	NaN	NaN	NaN	NaN	-1304.97571	1699.3634	247.95372	NaN	NaN	NaN	NaN	NaN	NaN	NaN	NaN	NaN	NaN	NaN	NaN	NaN	NaN	NaN	NaN	NaN	NaN	NaN	NaN	NaN
19	0.18	-1602.59155	527.75537	99.90708	-1171.58997	355.52469	341.52625	-1538.37756	1173.25586	494.36011	-1430.70435	1094.91016	436.39371	-1525.77295	677.47107	70.70496	-1191.62769	618.95197	358.06775	-1576.71179	1275.26038	496.41333	-1188.88879	1637.43799	331.47409	-1190.41504	1216.27783	115.80177	-1500.29956	1358.87341	465.94946	-1255.39685	1189.68665	245.76926	-1336.13257	977.96161	338.13092	-1256.68762	1372.75317	252.56062	-1333.18457	1428.94336	389.19504	-1332.60718	953.27222	126.82001	-1270.30615	712.25183	390.00366	-1326.69568	1612.5769	315.20807	-1314.42065	1619.04395	186.45508	-1347.36328	1468.98779	227.38487	-1470.67358	1056.82471	473.72342	-1394.90063	1029.69043	474.09448	-1012.21277	115.81513	267.33984	-1269.61646	1429.61035	94.26984	-1460.65894	1332.97131	266.79431	-1791.47791	350.8132	106.47222	-1160.9375	173.74062	284.26624	-1109.32764	1204.53442	155.43759	-1908.90222	229.10593	145.13591	-1201.91357	159.38179	239.44678	-1455.21716	1165.50354	207.65201	-1931.47913	267.9212	181.42305	-1908.81653	82.00031	197.18715	-1174.21704	1649.37842	199.99138	-1470.6604	1025.53577	140.76341	-1473.5946	1028.59448	306.70123	-1292.85181	1273.04651	-25.95779	-1317.51611	1180.64978	-77.28175	-1224.00146	1153.16504	6.9733	-1161.22925	1153.27722	105.25803	NaN	NaN	NaN	NaN	NaN	NaN	-1271.58276	1704.61707	250.97345	NaN	NaN	NaN	NaN	NaN	NaN	NaN	NaN	NaN	NaN	NaN	NaN	NaN	NaN	NaN	NaN	NaN	NaN	NaN	NaN	NaN
